# xmcd CD database file
#
# Track frame offsets:
#	150
#	15805
#	36650
#	58670
#	76169
#	88937
#	104624
#	117221
#	133581
#	155084
#	172325
#	189197
#
# Disc length: 2787 seconds
#
# Revision: 2
# Processed by: cddbd v1.5PL3 Copyright (c) Steve Scherf et al.
# Submitted via: jetAudio 5
#
DISCID=9e0ae10c
DTITLE=王芷蕾 - 盛开精选Ⅰ
DYEAR=1900
DGENRE=
TTITLE0=台北的天空
TTITLE1=冷冷的夏
TTITLE2=你有一张不被看见的脸
TTITLE3=交错
TTITLE4=请不要说再见
TTITLE5=晚风
TTITLE6=也是幸运
TTITLE7=茧爱
TTITLE8=冷冷的风
TTITLE9=给你小王子
TTITLE10=如果我宁可
TTITLE11=走不完的圆
EXTD=2001华纳
EXTT0=
EXTT1=
EXTT2=
EXTT3=
EXTT4=
EXTT5=
EXTT6=
EXTT7=
EXTT8=
EXTT9=
EXTT10=
EXTT11=
PLAYORDER=
